# xmcd CD database file
#
# Track frame offsets:
#	150
#	10056
#	24330
#	36737
#	51798
#	67547
#	80432
#	94112
#	108197
#	119484
#	136684
#	151083
#	165737
#	180734
#	193257
#	203817
#	224647
#	237059
#	254828
#	267731
#	269248
#	270765
#	272281
#	273798
#	275314
#	276831
#
# Disc length: 3852 seconds
#
# Revision: 2
# Processed by: cddbd v1.5.2PL0 Copyright (c) Steve Scherf et al.
# Submitted via: CDex 1.51
#
DISCID=790f0a1a
DTITLE=Ski-King - The Mighty - Uncaged
DYEAR=2008
DGENRE=Country
TTITLE0=Egg Sucking Dog
TTITLE1=Backstage Pass to a Willie Nelson Show
TTITLE2=Shiver Down My Spine - Goodbye Johnny
TTITLE3=Running Man
TTITLE4=Highway to Hell
TTITLE5=Psycho Dad
TTITLE6=Ive got Erection
TTITLE7=King of Fools
TTITLE8=I Wanna be Sedated
TTITLE9=Pet Cemetary
TTITLE10=Candy
TTITLE11=Hells Angels
TTITLE12=Paradise City
TTITLE13=These Boots are Made for Walking
TTITLE14=Funnel of Love
TTITLE15=Whisky in the Jar
TTITLE16=Ace of Spades
TTITLE17=Going to the Run
TTITLE18=Psyco Dad - Skizzo Mix
TTITLE19=Lied 20
TTITLE20=Lied 21
TTITLE21=Lied 22
TTITLE22=Lied 23
TTITLE23=Lied 24
TTITLE24=Lied 25
TTITLE25=Jackson - Hidden Track
EXTD=YEAR: 2008
EXTT0=
EXTT1=
EXTT2=
EXTT3=
EXTT4=
EXTT5=
EXTT6=
EXTT7=
EXTT8=
EXTT9=
EXTT10=
EXTT11=
EXTT12=
EXTT13=
EXTT14=
EXTT15=
EXTT16=
EXTT17=
EXTT18=
EXTT19=
EXTT20=
EXTT21=
EXTT22=
EXTT23=
EXTT24=
EXTT25=
PLAYORDER=
